<svg xmlns="http://www.w3.org/2000/svg" width="13" height="13">
  <g fill="none" fill-rule="evenodd">
    <path d="M-6-5h24v24H-6z"/>
    <path fill="#000" d="M6.363961 4.94974747L2.12132034.70710678c-.39052429-.39052429-1.02368927-.39052429-1.41421356 0-.39052429.39052429-.39052429 1.02368927 0 1.41421356L4.9497475 6.363961.70710678 10.6066017c-.39052429.3905243-.39052429 1.0236893 0 1.4142136.39052429.3905243 1.02368927.3905243 1.41421356 0L6.363961 7.7781746l4.2426407 4.2426407c.3905243.3905243 1.0236893.3905243 1.4142136 0 .3905243-.3905243.3905243-1.0236893 0-1.4142136L7.7781746 6.363961l4.2426407-4.24264066c.3905243-.39052429.3905243-1.02368927 0-1.41421356-.3905243-.39052429-1.0236893-.39052429-1.4142136 0L6.363961 4.94974747z"/>
  </g>
</svg>
