<svg xmlns="http://www.w3.org/2000/svg" width="150" height="22">
    <g fill="none" fill-rule="evenodd">
        <path fill="#FF3029" d="M5.544 11.424L2.616 18H.48l3.216-7.032c-.75200376-.3840019-1.35999768-.9479963-1.824-1.692-.46400232-.74400372-.696-1.7559936-.696-3.036 0-.89600448.13199868-1.6839966.396-2.364.26400132-.6800034.62399772-1.24399776 1.08-1.692.45600228-.44800224.98799696-.78399888 1.596-1.008C4.85600304.95199888 5.49599664.84 6.168.84h2.76V18H7.08v-6.576H5.544zM7.08 2.4h-.984c-.36800184 0-.72799824.06799932-1.08.204-.35200176.13600068-.66399864.35199852-.936.648-.27200136.29600148-.49199916.68799756-.66 1.176-.16800084.48800244-.252 1.0919964-.252 1.812 0 .68800344.07599924 1.26399768.228 1.728.15200076.46400232.35999868.83999856.624 1.128.26400132.28800144.5759982.4919994.936.612.3600018.1200006.739998.18 1.14.18h.984V2.4z"/>
        <path fill="#000" d="M27.456 20.376h-1.68V18h-5.184v2.376h-1.68v-3.912h.744c.2720014-.6400032.4879992-1.3479961.648-2.124.1600008-.7760039.2839996-1.5759959.372-2.4.0880004-.8240041.1439999-1.6639957.168-2.52.0240001-.85600428.036-1.683996.036-2.484V5.904h5.616v10.56h.96v3.912zm8.136-3.192c-.3840019.3040015-.8239975.5439991-1.32.72-.4960025.1760009-1.047997.264-1.656.264-1.2480062 0-2.2319964-.4839952-2.952-1.452-.7200036-.9680048-1.08-2.3879906-1.08-4.26 0-.9760049.0679993-1.8719959.204-2.688.1360007-.81600408.3519985-1.523997.648-2.124.2960015-.600003.6759977-1.06799832 1.14-1.404.4640023-.33600168 1.0159968-.504 1.656-.504.4960025 0 .9519979.099999 1.368.3.4160021.200001.7679986.52399776 1.056.972.2880014.44800224.5119992 1.02799644.672 1.74.1600008.71200356.24 1.5799949.24 2.604v1.032h-5.04c0 1.3760069.1879981 2.4159965.564 3.12.3760019.7040035.9399962 1.056 1.692 1.056.5280026 0 .995998-.0919991 1.404-.276.408002-.1840009.7319988-.3639991.972-.54l.432 1.44zm-17.76-11.28V18h-1.848v-5.424H13.2V18h-1.872V5.904H13.2v5.136h2.784V5.904h1.848zm21.528 6.072V18h-1.872V5.904h1.872v5.592l2.904-5.592h1.896l-3 5.688L44.592 18h-2.04l-3.192-6.024zm9.624 6.192c-1.2960065 0-2.3119963-.5159948-3.048-1.548-.7360037-1.0320052-1.104-2.5879896-1.104-4.668 0-.9440047.0919991-1.7999962.276-2.568.1840009-.76800384.4559982-1.41999732.816-1.956.3600018-.53600268.8079973-.95199852 1.344-1.248.5360027-.29600148 1.1559965-.444 1.86-.444.5440027 0 .9839983.0599994 1.32.18.3360017.1200006.6399986.26799912.912.444l-.264 1.776c-.2560013-.22400112-.5559983-.41999916-.9-.588-.3440017-.16800084-.7079981-.252-1.092-.252-.6720034 0-1.2239978.37599624-1.656 1.128-.4320022.75200376-.648 1.8959923-.648 3.432 0 1.5200076.1799982 2.6919959.54 3.516.3600018.8240041.9239962 1.236 1.692 1.236.4640023 0 .8639983-.0759992 1.2-.228.3360017-.1520008.6159989-.323999.84-.516l.432 1.392c-.3200016.2720014-.679998.4919992-1.08.66-.400002.1680008-.8799972.252-1.44.252zM24.648 7.416H22.56v.216c0 .6400032-.0119999 1.3399962-.036 2.1-.0240001.7600038-.0759996 1.5319961-.156 2.316-.0800004.7840039-.1919993 1.5559962-.336 2.316-.1440007.7600038-.3439987 1.4599968-.6 2.1h3.216V7.416zm7.584-.144c-.5760029 0-.9839988.32399676-1.224.972-.2400012.64800324-.3919997 1.51599456-.456 2.604h3.096c0-.5120026-.0239998-.9879978-.072-1.428-.0480002-.4400022-.1239995-.8199984-.228-1.14-.1040005-.3200016-.2479991-.56799912-.432-.744-.1840009-.17600088-.4119986-.264-.684-.264zm31.344-5.448h-5.112V18h-1.2V.84h7.512V18h-1.2V1.824zm4.392 10.32c.0320002 1.6640083.2639978 2.9319956.696 3.804.4320022.8720044 1.0879956 1.308 1.968 1.308.400002 0 .7519985-.0639994 1.056-.192.3040015-.1280006.559999-.2799991.768-.456.2400012-.1760009.4479991-.3919987.624-.648l.36.912c-.192001.2720014-.4239986.503999-.696.696-.2400012.1760009-.5359982.3319993-.888.468-.3520018.1360007-.7679976.204-1.248.204-1.2800064 0-2.223997-.5519945-2.832-1.656-.608003-1.1040055-.912-2.6479901-.912-4.632 0-.992005.0879991-1.8759961.264-2.652.1760009-.77600388.4199984-1.43599728.732-1.98.3120016-.54400272.6839978-.9559986 1.116-1.236.4320022-.2800014.9039974-.42 1.416-.42.5280026 0 .9999979.13599864 1.416.408.4160021.27200136.7599986.67999728 1.032 1.224.2720014.54400272.4639994 1.21999596.576 2.028.1120006.808004.1200005 1.7479946.024 2.82h-5.472zM70.392 6.6c-.6400032 0-1.1879977.39599604-1.644 1.188-.4560023.79200396-.7079998 1.9479924-.756 3.468h4.392c.0960005-1.61600808-.059998-2.79599628-.468-3.54-.408002-.74400372-.915997-1.116-1.524-1.116zm8.544 10.728c.7680038 0 1.3839977-.4599954 1.848-1.38s.696-2.3399904.696-4.26c0-1.600008-.199998-2.8399956-.6-3.72-.400002-.8800044-.9519965-1.32-1.656-1.32-.2720014 0-.5319988.06799932-.78.204-.2480012.13600068-.4799989.31599888-.696.54-.2160011.22400112-.4119991.48399852-.588.78-.1760009.29600148-.3279994.6039984-.456.924v6.768c.2400012.4960025.5359982.8639988.888 1.104.3520018.2400012.7999973.36 1.344.36zm-.072.888c-.4640023 0-.8839981-.099999-1.26-.3-.3760019-.200001-.6759989-.4519985-.9-.756v4.584h-1.128V5.904h.984l.096 1.992c.2720014-.57600288.6319978-1.09199772 1.08-1.548.4480022-.45600228 1.0079966-.684 1.68-.684.4960025 0 .943998.14399856 1.344.432.400002.28800144.7359986.6919974 1.008 1.212.2720014.5200026.4799993 1.14399636.624 1.872.1440007.72800364.216 1.5319956.216 2.412 0 2.2240111-.3439966 3.8839945-1.032 4.98-.6880034 1.0960055-1.5919944 1.644-2.712 1.644zm6.384-6.072c.0320002 1.6640083.2639978 2.9319956.696 3.804.4320022.8720044 1.0879956 1.308 1.968 1.308.400002 0 .7519985-.0639994 1.056-.192.3040015-.1280006.559999-.2799991.768-.456.2400012-.1760009.4479991-.3919987.624-.648l.36.912c-.192001.2720014-.4239986.503999-.696.696-.2400012.1760009-.5359982.3319993-.888.468-.3520018.1360007-.7679976.204-1.248.204-1.2800064 0-2.223997-.5519945-2.832-1.656-.608003-1.1040055-.912-2.6479901-.912-4.632 0-.992005.0879991-1.8759961.264-2.652.1760009-.77600388.4199984-1.43599728.732-1.98.3120016-.54400272.6839978-.9559986 1.116-1.236.4320022-.2800014.9039974-.42 1.416-.42.5280026 0 .9999979.13599864 1.416.408.4160021.27200136.7599986.67999728 1.032 1.224.2720014.54400272.4639994 1.21999596.576 2.028.1120006.808004.1200005 1.7479946.024 2.82h-5.472zM87.672 6.6c-.6400032 0-1.1879977.39599604-1.644 1.188-.4560023.79200396-.7079998 1.9479924-.756 3.468h4.392c.0960005-1.61600808-.059998-2.79599628-.468-3.54-.408002-.74400372-.915997-1.116-1.524-1.116zm6.288.24V18h-1.104V5.904h5.112v.936H93.96zm8.664 11.4c-.528003 0-1.015998-.1319987-1.464-.396s-.835998-.6519974-1.164-1.164c-.3280016-.5120026-.587999-1.1559961-.78-1.932-.192001-.7760039-.288-1.6839948-.288-2.724 0-1.008005.095999-1.907996.288-2.7.192001-.79200396.4519984-1.45599732.78-1.992.328002-.53600268.715998-.94799856 1.164-1.236.448002-.28800144.935997-.432 1.464-.432s1.015998.12799872 1.464.384.835998.6439974 1.164 1.164c.328002.5200026.587999 1.16799612.78 1.944.192001.77600388.288 1.6839948.288 2.724 0 1.008005-.095999 1.9039961-.288 2.688-.192001.7840039-.451998 1.4479973-.78 1.992-.328002.5440027-.715998.9599986-1.164 1.248-.448002.2880014-.935997.432-1.464.432zm0-.912c.704004 0 1.307997-.4399956 1.812-1.32s.756-2.2319909.756-4.056c0-.9440047-.067999-1.7559966-.204-2.436-.136001-.6800034-.319999-1.23599784-.552-1.668-.232001-.43200216-.503998-.747999-.816-.948-.312002-.200001-.643998-.3-.996-.3-.704004 0-1.307997.43199568-1.812 1.296s-.756 2.2159908-.756 4.056c0 .9440047.067999 1.7559966.204 2.436.136001.6800034.319999 1.2359978.552 1.668.232001.4320022.503998.751999.816.96s.643998.312.996.312zm5.76.672V5.904h2.544c1.072005 0 1.887997.24799752 2.448.744s.84 1.2239952.84 2.184c0 .60800304-.135999 1.1519976-.408 1.632-.272001.4800024-.703997.8559986-1.296 1.128.784004.2240011 1.355998.5839975 1.716 1.08.360002.4960025.54 1.1119963.54 1.848 0 1.200006-.343997 2.0799972-1.032 2.64-.688003.5600028-1.607994.84-2.76.84h-2.592zm1.104-11.208v4.488h1.392c.672003 0 1.215998-.1879981 1.632-.564.416002-.3760019.624-.98799576.624-1.836 0-.76800384-.199998-1.30799844-.6-1.62-.400002-.31200156-.951996-.468-1.656-.468h-1.392zm0 5.328v5.016h1.488c.784004 0 1.423998-.1879981 1.92-.564.496002-.3760019.744-1.0359953.744-1.98 0-.8800044-.227998-1.5119981-.684-1.896-.456002-.3840019-1.123996-.576-2.004-.576h-1.464zm10.368 6.12c-.528003 0-1.015998-.1319987-1.464-.396s-.835998-.6519974-1.164-1.164c-.328002-.5120026-.587999-1.1559961-.78-1.932-.192001-.7760039-.288-1.6839948-.288-2.724 0-1.008005.095999-1.907996.288-2.7.192001-.79200396.451998-1.45599732.78-1.992s.715998-.94799856 1.164-1.236c.448002-.28800144.935997-.432 1.464-.432s1.015998.12799872 1.464.384.835998.6439974 1.164 1.164c.328002.5200026.587999 1.16799612.78 1.944.192001.77600388.288 1.6839948.288 2.724 0 1.008005-.095999 1.9039961-.288 2.688-.192001.7840039-.451998 1.4479973-.78 1.992-.328002.5440027-.715998.9599986-1.164 1.248-.448002.2880014-.935997.432-1.464.432zm0-.912c.704004 0 1.307997-.4399956 1.812-1.32s.756-2.2319909.756-4.056c0-.9440047-.067999-1.7559966-.204-2.436-.136001-.6800034-.319999-1.23599784-.552-1.668-.232001-.43200216-.503998-.747999-.816-.948-.312002-.200001-.643998-.3-.996-.3-.704004 0-1.307997.43199568-1.812 1.296s-.756 2.2159908-.756 4.056c0 .9440047.067999 1.7559966.204 2.436.136001.6800034.319999 1.2359978.552 1.668.232001.4320022.503998.751999.816.96s.643998.312.996.312zm9.12 0c.768004 0 1.383998-.4599954 1.848-1.38s.696-2.3399904.696-4.26c0-1.600008-.199998-2.8399956-.6-3.72-.400002-.8800044-.951996-1.32-1.656-1.32-.272001 0-.531999.06799932-.78.204-.248001.13600068-.479999.31599888-.696.54-.216001.22400112-.411999.48399852-.588.78-.176001.29600148-.327999.6039984-.456.924v6.768c.240001.4960025.535998.8639988.888 1.104.352002.2400012.799997.36 1.344.36zm-.072.888c-.464002 0-.883998-.099999-1.26-.3-.376002-.200001-.675999-.4519985-.9-.756v4.584h-1.128V5.904h.984l.096 1.992c.272001-.57600288.631998-1.09199772 1.08-1.548.448002-.45600228 1.007997-.684 1.68-.684.496002 0 .943998.14399856 1.344.432.400002.28800144.735999.6919974 1.008 1.212.272001.5200026.479999 1.14399636.624 1.872.144001.72800364.216 1.5319956.216 2.412 0 2.2240111-.343997 3.8839945-1.032 4.98-.688003 1.0960055-1.591994 1.644-2.712 1.644zm7.032-.216h-1.128V5.904h1.128v5.688l4.056-5.688h1.104l-3.984 5.616 4.272 6.48h-1.248l-4.2-6.264V18zm12.48-8.424c0-.3200016.008-.61199868.024-.876s.04-.52399872.072-.78h-.072c-.08.27200136-.175999.53199876-.288.78-.112001.24800124-.231999.50799864-.36.78L143.856 18h-.96V5.904h1.056v8.4c0 .3200016-.008.6159986-.024.888-.016.2720014-.04.5439986-.072.816h.072c.08-.2720014.175999-.5399987.288-.804.112001-.2640013.231999-.5319986.36-.804l3.936-8.496h.984V18h-1.08V9.576z"/>
    </g>
</svg>